<mxfile host="Electron" modified="2024-04-16T02:21:51.125Z" agent="Mozilla/5.0 (Windows NT 10.0; Win64; x64) AppleWebKit/537.36 (KHTML, like Gecko) draw.io/24.2.5 Chrome/120.0.6099.109 Electron/28.1.0 Safari/537.36" etag="my8aPP96-97Hk18tUGm5" version="24.2.5" type="device">
  <diagram name="Page-1" id="GAg8haRcpsVNe8hPWDVm">
    <mxGraphModel dx="3338" dy="1504" grid="1" gridSize="10" guides="1" tooltips="1" connect="1" arrows="1" fold="1" page="0" pageScale="1" pageWidth="1920" pageHeight="1200" math="0" shadow="0">
      <root>
        <mxCell id="0" />
        <mxCell id="1" parent="0" />
        <mxCell id="3JFMlEUNZGDiNWC0OtGJ-4" value="" style="rounded=0;whiteSpace=wrap;html=1;fillColor=#3D3D3D;strokeColor=#858585;connectable=0;allowArrows=0;expand=0;movable=0;resizable=0;rotatable=0;cloneable=0;deletable=0;container=1;imageAspect=1;opacity=50;" parent="1" vertex="1">
          <mxGeometry width="1920" height="1200" as="geometry" />
        </mxCell>
        <mxCell id="3JFMlEUNZGDiNWC0OtGJ-5" value="" style="rounded=0;whiteSpace=wrap;html=1;fillColor=#3D3D3D;strokeColor=#858585;opacity=50;connectable=0;allowArrows=0;expand=0;movable=0;rotatable=0;cloneable=0;deletable=0;" parent="1" vertex="1">
          <mxGeometry y="1200" width="1920" height="1790" as="geometry" />
        </mxCell>
        <mxCell id="MXAojA-mFuaZF7LVjv7G-1" value="" style="rounded=0;whiteSpace=wrap;html=1;fillColor=#4d4d4d;strokeColor=#858585;fillStyle=dots;" vertex="1" parent="1">
          <mxGeometry x="820" y="690" width="320" height="290" as="geometry" />
        </mxCell>
      </root>
    </mxGraphModel>
  </diagram>
</mxfile>
